<svg version="1.1" id="Layer_1" xmlns="http://www.w3.org/2000/svg" xmlns:xlink="http://www.w3.org/1999/xlink" x="0px" y="0px"
	 width="100%" viewBox="0 0 385 232" enable-background="new 0 0 385 232" xml:space="preserve">
<path fill="#FEFEFE" opacity="1.000000" stroke="none" 
	d="
M247.000000,233.000000 
	C166.000031,233.000000 85.500000,232.972153 5.000220,233.096069 
	C1.576020,233.101334 0.897939,232.424545 0.903731,228.999908 
	C1.030023,154.333481 1.030010,79.666733 0.903762,5.000304 
	C0.897972,1.576139 1.575768,0.901797 4.999942,0.904878 
	C130.666473,1.017942 256.333160,1.017928 381.999664,0.904932 
	C385.422974,0.901854 386.102112,1.574918 386.096313,4.999905 
	C385.969971,79.666336 385.970001,154.333084 386.096191,228.999512 
	C386.101990,232.423264 385.426331,233.109314 382.000000,233.098038 
	C337.167053,232.950531 292.333435,233.000000 247.000000,233.000000 
z"/>
<path fill="#040404" opacity="1.000000" stroke="none" 
	d="
M24.453911,73.445190 
	C25.071789,73.193840 25.258167,73.438538 25.287357,73.421043 
	C39.268791,65.038666 55.426083,64.083412 70.705406,60.158798 
	C77.633286,58.379314 84.562805,56.727463 90.567116,52.584381 
	C92.467369,51.273178 94.688652,51.447701 96.814590,51.259293 
	C101.448425,50.848629 106.102097,51.012150 110.744743,50.321938 
	C117.520882,49.314541 124.094246,47.976635 129.727997,43.339127 
	C129.639709,67.453384 110.895073,83.892143 87.751938,80.411346 
	C78.231110,78.979393 68.808510,76.856133 59.268528,75.598953 
	C45.758419,73.818581 32.736588,75.512383 20.510773,82.457329 
	C18.222212,79.220207 20.852816,77.668625 22.397781,75.472534 
	C23.060234,74.755791 23.514894,74.296982 24.453911,73.445190 
z"/>
<path fill="#050505" opacity="1.000000" stroke="none" 
	d="
M17.436075,82.818390 
	C16.996653,83.619400 16.791676,84.173195 16.332352,84.878189 
	C15.301129,85.608688 14.539688,85.586235 13.531336,84.642563 
	C12.570626,82.496613 11.790269,80.692177 12.544605,78.301147 
	C12.899323,60.983189 19.776861,51.572002 36.028912,46.117767 
	C42.209713,44.043468 48.623379,42.926422 55.055836,42.172909 
	C69.532349,40.477104 82.192947,34.742306 93.526527,25.759153 
	C94.758728,24.782488 95.697960,23.264614 97.506744,23.084650 
	C100.218918,36.727329 94.265923,48.148781 81.529846,53.914173 
	C72.469421,58.015667 62.680824,59.174175 53.055672,60.995487 
	C46.190815,62.294479 39.354393,63.713135 32.969498,66.680008 
	C29.811737,68.147324 26.626657,69.622406 24.675217,72.774261 
	C24.958834,73.071617 24.972605,73.029831 24.990023,73.016266 
	C24.533199,73.461296 24.052961,73.913620 23.343807,74.609833 
	C20.602966,76.934013 19.482552,79.996117 17.436075,82.818390 
z"/>
<path fill="#080808" opacity="1.000000" stroke="none" 
	d="
M335.796051,132.000107 
	C335.796051,142.655136 335.852051,152.810760 335.737762,162.964493 
	C335.719910,164.553101 336.961578,167.190399 334.302032,167.536835 
	C331.746155,167.869751 328.871063,168.755402 326.799438,165.489182 
	C319.947510,154.685928 312.823792,144.054947 305.790619,133.366898 
	C304.737640,131.766739 303.611023,130.215012 301.419403,128.834625 
	C301.419403,133.525818 301.419464,138.217026 301.419403,142.908218 
	C301.419312,149.733719 301.139618,156.574921 301.522186,163.378891 
	C301.757141,167.557602 299.874084,167.724655 296.563965,167.856323 
	C292.823212,168.005142 291.839691,166.959167 291.889252,163.185364 
	C292.112122,146.207779 291.937744,129.225281 292.062408,112.245674 
	C292.074738,110.565018 290.613159,107.724464 293.414215,107.265694 
	C296.109467,106.824257 299.050293,106.228836 301.218475,109.693657 
	C308.268860,120.960342 315.719910,131.976349 323.021912,143.085464 
	C323.745209,144.185822 324.503754,145.263031 326.146515,147.671219 
	C326.146515,143.201218 326.146729,140.030640 326.146484,136.860062 
	C326.145813,128.203339 326.388733,119.536819 326.041962,110.893974 
	C325.866882,106.530556 328.325653,107.128853 331.027527,107.053871 
	C333.922546,106.973541 336.116852,106.845596 335.892761,111.028847 
	C335.528198,117.834793 335.795441,124.674583 335.796051,132.000107 
z"/>
<path fill="#090909" opacity="1.000000" stroke="none" 
	d="
M256.845947,167.731476 
	C253.100189,168.274933 251.659500,167.280685 251.860901,163.546371 
	C252.192368,157.400116 251.799088,151.217590 252.016327,145.061127 
	C252.118958,142.152817 251.143875,141.383057 248.355560,141.480423 
	C242.698135,141.677963 237.018906,141.740387 231.368408,141.460205 
	C228.079636,141.297119 227.497162,142.596146 227.587097,145.495560 
	C227.778076,151.653778 227.381058,157.837143 227.732864,163.981140 
	C227.988647,168.448349 225.236008,167.719055 222.625534,167.730072 
	C220.149124,167.740524 217.854858,168.342300 217.911819,164.170410 
	C218.155136,146.347687 218.158310,128.517700 217.906326,110.695206 
	C217.848557,106.609024 219.974213,106.982704 222.523315,107.098282 
	C224.982758,107.209785 228.005920,106.007568 227.731186,110.677101 
	C227.379578,116.653900 227.770905,122.670853 227.591629,128.663010 
	C227.512863,131.295715 228.335464,132.088730 230.955872,132.009186 
	C236.947906,131.827332 242.952164,131.842545 248.945358,132.003906 
	C251.387527,132.069656 252.058044,131.251526 252.000381,128.889160 
	C251.854080,122.895241 252.208527,116.880692 251.864288,110.903091 
	C251.650879,107.197182 253.353745,106.786736 256.238098,107.077423 
	C258.632721,107.318756 261.494324,105.927162 261.428040,110.622856 
	C261.176544,128.445374 261.228485,146.274506 261.408966,164.098724 
	C261.443451,167.504593 260.070251,168.116547 256.845947,167.731476 
z"/>
<path fill="#080808" opacity="1.000000" stroke="none" 
	d="
M169.538757,156.281128 
	C168.000320,153.404831 170.220749,152.864120 171.666077,151.928955 
	C173.197342,150.938202 174.778152,150.024063 176.601791,148.915726 
	C179.737885,157.003067 185.850220,159.954422 194.050858,158.755676 
	C197.669296,158.226730 200.715012,156.722031 201.249161,152.383423 
	C201.762299,148.215469 199.754715,145.678055 196.197830,144.205826 
	C191.145737,142.114731 185.899124,140.465652 180.941040,138.181763 
	C173.039352,134.541931 170.162109,129.252258 171.056290,121.072754 
	C171.826370,114.028664 176.867371,108.565842 184.352264,106.664200 
	C193.636047,104.305511 202.813446,108.049614 207.616821,116.053627 
	C208.862000,118.128494 209.757507,120.134048 206.603119,120.950493 
	C204.429611,121.513046 202.632690,126.646378 199.714172,121.460480 
	C197.059448,116.743294 192.471649,115.299683 187.262161,116.048523 
	C183.899200,116.531937 181.324982,118.139320 180.658264,121.833801 
	C180.007675,125.438957 181.395737,128.174805 184.614441,129.601730 
	C189.155472,131.614868 193.884048,133.200500 198.499512,135.051056 
	C207.863037,138.805374 211.853439,144.691513 210.863113,153.161118 
	C209.877441,161.590958 204.050476,167.032990 194.408524,168.528732 
	C183.750565,170.182053 174.684845,165.796814 169.538757,156.281128 
z"/>
<path fill="#080808" opacity="1.000000" stroke="none" 
	d="
M366.990479,167.724792 
	C360.666687,167.723526 354.838043,167.621765 349.015686,167.769165 
	C346.598297,167.830383 345.896301,167.022354 345.907440,164.636917 
	C345.992096,146.493134 345.988708,128.348633 345.913391,110.204773 
	C345.903870,107.910690 346.427490,107.002487 348.934601,107.038597 
	C358.587311,107.177612 368.247589,107.268127 377.895966,107.021721 
	C382.444916,106.905540 380.884766,109.955467 380.963013,112.050163 
	C381.046021,114.272560 382.128265,117.166695 377.721039,116.934433 
	C371.579132,116.610779 365.403656,116.980537 359.249878,116.801781 
	C356.409576,116.719276 355.176941,117.202026 355.150055,120.527214 
	C355.054993,132.276749 354.905273,132.275497 366.671539,132.274780 
	C369.001984,132.274628 371.369843,132.539536 373.654572,132.216400 
	C377.623444,131.655075 378.121796,133.437073 378.289093,136.956116 
	C378.496552,141.320007 376.980530,142.296356 372.972046,141.986801 
	C368.338837,141.628983 363.644531,142.109985 359.000000,141.834717 
	C355.797485,141.644913 355.180817,142.822235 355.169159,145.803101 
	C355.121490,158.017563 355.015320,158.017151 367.142487,158.017029 
	C370.138763,158.016998 373.179962,158.343979 376.120819,157.940231 
	C380.532410,157.334579 381.202759,159.205048 381.179962,163.151917 
	C381.158478,166.873611 380.271820,168.230896 376.469238,167.793686 
	C373.511993,167.453644 370.484467,167.725098 366.990479,167.724792 
z"/>
<path fill="#080808" opacity="1.000000" stroke="none" 
	d="
M11.731258,90.991898 
	C13.071247,89.817215 13.486561,91.106789 13.560985,91.556656 
	C13.772256,92.833717 13.890342,94.229683 13.593126,95.470581 
	C11.662981,103.528992 11.614932,110.010757 21.489738,113.653923 
	C28.094999,116.090843 27.948736,118.251175 25.100933,125.041237 
	C23.110922,129.786057 21.252499,134.589355 19.135109,139.276093 
	C18.081745,141.607666 18.543377,142.895355 20.852398,143.942154 
	C23.723763,145.243896 26.476009,146.809036 29.275120,148.269211 
	C30.357779,148.833984 31.299049,149.612213 31.098228,150.946579 
	C30.751291,153.251816 29.437805,151.198776 28.684864,151.435837 
	C26.122080,152.242752 25.159637,154.594666 23.706797,156.718338 
	C31.873680,157.862473 40.014046,157.427979 47.596405,162.175064 
	C39.225525,164.999130 31.028776,161.437286 22.590321,161.972473 
	C23.572439,165.329269 25.172144,167.371796 28.793802,167.126526 
	C29.611872,167.071121 30.449629,167.276749 31.276112,167.379944 
	C39.461960,168.402054 39.886856,169.485519 35.521023,176.322327 
	C31.896639,181.998032 34.197277,187.031265 38.069126,191.713409 
	C29.960760,192.747559 23.765820,189.144775 21.361492,182.060028 
	C16.286501,167.105774 12.319073,151.829025 8.366389,136.555939 
	C7.105164,131.682617 9.905257,127.145233 10.430405,122.391617 
	C10.593299,120.917099 11.493649,118.861610 10.842032,118.063225 
	C5.063843,110.983665 9.319834,103.808113 10.331415,96.683716 
	C10.587266,94.881805 11.139390,93.121964 11.731258,90.991898 
z"/>
<path fill="#080808" opacity="1.000000" stroke="none" 
	d="
M124.584808,108.234512 
	C128.103561,110.813469 130.001511,113.984474 130.667343,117.924736 
	C129.273575,118.655312 128.571243,117.321487 127.617920,116.942619 
	C120.885895,114.267197 114.699966,116.466133 112.065887,123.270386 
	C108.459488,132.586273 108.534843,142.158890 112.045189,151.520432 
	C113.825645,156.268661 117.456879,159.047150 122.753731,158.955978 
	C128.051453,158.864761 131.347473,155.904465 133.230087,151.164185 
	C136.085403,143.974670 136.203140,136.413208 134.909851,129.049622 
	C133.919220,123.409370 136.073425,119.282608 138.765427,114.668350 
	C140.989960,116.487213 141.926605,118.857338 142.636520,121.118874 
	C146.180298,132.407730 146.207474,143.758759 141.918243,154.835358 
	C138.568115,163.486786 132.257034,168.643341 122.628822,168.796829 
	C113.647163,168.940018 106.532280,163.925171 103.034714,154.559204 
	C98.746635,143.076324 98.897118,131.439514 103.115173,119.935150 
	C104.626328,115.813637 107.183342,112.326958 110.770027,109.681633 
	C114.960976,106.590630 119.396111,105.518570 124.584808,108.234512 
z"/>
<path fill="#090909" opacity="1.000000" stroke="none" 
	d="
M66.080505,116.644073 
	C64.429413,116.644073 63.263317,116.645172 62.097221,116.643883 
	C56.943485,116.638191 54.892117,113.453903 56.611599,108.443069 
	C57.172035,106.809883 58.287579,107.109695 59.369946,107.107124 
	C69.198402,107.083794 79.027466,107.034264 88.855133,107.124878 
	C92.070244,107.154518 93.290886,113.121986 90.694290,117.038658 
	C87.484383,121.880417 83.991302,126.534439 80.410011,131.565369 
	C89.118011,134.923996 94.339577,140.614349 94.027878,150.259827 
	C93.745247,159.005783 88.275108,165.970566 79.938202,168.015106 
	C70.258629,170.388916 60.629780,166.788300 56.244713,159.491653 
	C54.576893,156.716461 55.299267,155.174530 57.951004,154.240158 
	C60.009438,153.514847 61.797016,149.432617 64.462921,154.167725 
	C67.175316,158.985413 73.870354,160.343918 79.070511,158.007111 
	C83.384529,156.068512 85.355804,151.756271 84.198555,146.797379 
	C83.135498,142.242157 80.006943,140.305481 75.591652,139.873032 
	C69.011055,139.228500 67.144890,134.972672 71.007477,129.578003 
	C73.815247,125.656525 76.591377,121.712364 79.365738,117.767151 
	C79.421631,117.687668 79.282944,117.471359 79.022995,116.644089 
	C75.031212,116.644089 70.798363,116.644089 66.080505,116.644073 
z"/>
<path fill="#101010" opacity="1.000000" stroke="none" 
	d="
M281.750702,136.000122 
	C281.751465,145.490372 281.505859,154.490326 281.860016,163.466614 
	C282.029602,167.764786 279.984924,167.856552 276.777832,167.827255 
	C273.792847,167.800003 271.923859,167.779541 271.976440,163.744461 
	C272.206360,146.099945 272.231750,128.448380 271.966949,110.804848 
	C271.899933,106.338013 274.418304,107.185181 276.995728,107.046997 
	C279.919891,106.890228 282.026428,106.891335 281.854675,111.030785 
	C281.516724,119.174652 281.752350,127.342308 281.750702,136.000122 
z"/>
<path fill="#0B0B0B" opacity="1.000000" stroke="none" 
	d="
M13.745420,83.701691 
	C14.470136,84.280708 14.963058,84.618088 15.766994,84.992432 
	C14.435232,87.733955 12.545082,87.220055 11.066504,85.079437 
	C4.345616,75.349266 1.746617,64.675995 6.086215,53.423717 
	C10.314710,42.459534 18.747299,36.155621 30.609505,34.959778 
	C36.785065,34.337219 42.913502,35.001644 49.060013,36.317207 
	C48.933277,37.840622 47.607800,37.696987 46.648972,37.974194 
	C40.905590,39.634651 35.103180,41.210052 29.862696,44.145668 
	C17.043167,51.326900 9.743762,61.775391 11.054064,77.514847 
	C12.267285,79.646019 12.495910,81.724159 13.745420,83.701691 
z"/>
<path fill="#303030" opacity="1.000000" stroke="none" 
	d="
M259.983398,192.090775 
	C191.566360,192.090775 123.646873,192.090775 55.727386,192.090775 
	C55.727585,191.674255 55.727783,191.257736 55.727982,190.841217 
	C128.021820,190.841217 200.315643,190.841217 272.609497,190.841217 
	C272.616425,191.257736 272.623352,191.674255 272.630310,192.090775 
	C268.580505,192.090775 264.530731,192.090775 259.983398,192.090775 
z"/>
<path fill="#0D0D0D" opacity="1.000000" stroke="none" 
	d="
M343.390625,176.761719 
	C349.292267,176.393005 353.517792,178.618561 355.936279,183.564728 
	C358.028290,187.843140 357.831177,192.256470 355.127838,196.312180 
	C351.998444,201.007004 345.943390,202.838333 340.114166,200.993622 
	C335.351959,199.486588 331.781342,193.897232 332.123444,188.485291 
	C332.507324,182.412979 336.403870,178.233276 343.390625,176.761719 
z"/>
<path fill="#0D0D0D" opacity="1.000000" stroke="none" 
	d="
M284.083771,186.841217 
	C282.807953,182.453629 283.720428,179.046143 287.756622,177.415726 
	C291.528290,175.892136 295.298462,176.360611 298.264160,179.540314 
	C299.060944,180.394592 300.669128,181.467865 298.920959,182.728592 
	C297.881409,183.478241 296.551910,185.024811 295.097198,183.145569 
	C294.214630,182.005386 292.985931,181.542770 291.651733,181.397873 
	C290.194977,181.239655 288.907440,181.844482 288.498291,183.256088 
	C288.137115,184.502167 288.974670,185.471817 290.156891,185.953537 
	C291.841034,186.639816 293.543060,187.287445 295.260284,187.886154 
	C298.963593,189.177353 301.289795,191.506668 300.622803,195.668320 
	C299.958160,199.815750 296.945129,201.345612 293.108185,201.524078 
	C289.552002,201.689468 286.091370,201.406189 283.717773,198.174561 
	C283.009521,197.210297 282.191376,196.056839 283.531372,195.197479 
	C284.582886,194.523132 285.767609,192.798965 287.314362,194.697525 
	C287.827393,195.327225 288.446594,195.988022 289.163116,196.312454 
	C291.385864,197.318893 294.184204,197.926697 295.393860,195.528244 
	C296.900787,192.540359 293.629883,192.231598 291.826874,191.521942 
	C289.063385,190.434219 286.057709,189.865265 284.083771,186.841217 
z"/>
<path fill="#060606" opacity="1.000000" stroke="none" 
	d="
M319.518860,186.649475 
	C321.606232,184.310608 320.541656,181.749954 320.715088,179.343628 
	C320.833588,177.700119 321.249695,176.987198 323.025726,177.012787 
	C324.694702,177.036865 325.433319,177.525940 325.419922,179.275375 
	C325.370392,185.755005 325.351471,192.235977 325.438629,198.714859 
	C325.465912,200.742599 324.586517,201.217850 322.748779,201.215302 
	C320.748962,201.212509 320.706543,200.040466 320.754639,198.620407 
	C320.782745,197.790619 320.647491,196.941208 320.777252,196.131317 
	C321.395935,192.270523 319.945282,191.177719 315.957855,191.062134 
	C311.361755,190.928894 311.781830,193.428207 311.890411,196.296844 
	C311.921814,197.126389 311.815338,197.967056 311.907990,198.787262 
	C312.150757,200.935745 310.918762,201.163391 309.189270,201.222305 
	C307.386871,201.283707 306.952087,200.535431 306.967346,198.895691 
	C307.027588,192.416214 307.010345,185.935745 306.978699,179.455856 
	C306.971405,177.960480 307.112244,176.901428 309.087891,177.015396 
	C310.737274,177.110565 312.135437,177.137421 311.894135,179.348862 
	C311.876251,179.512817 311.886078,179.681580 311.898956,179.846878 
	C312.439240,186.781219 312.439453,186.781204 319.518860,186.649475 
z"/>
<path fill="#0C0C0C" opacity="1.000000" stroke="none" 
	d="
M371.667847,177.045349 
	C378.468079,177.752106 381.085297,180.204163 381.022827,185.393417 
	C380.962524,190.400909 378.250580,193.184418 372.290283,193.208954 
	C368.670471,193.223877 368.752960,195.036911 368.838715,197.523376 
	C368.897675,199.232895 369.461700,201.176178 366.427979,201.271286 
	C363.316071,201.368820 363.961823,199.401031 363.952148,197.692139 
	C363.926788,193.215958 363.945251,188.739532 363.945587,184.263214 
	C363.946167,177.046356 363.945953,177.046356 371.667847,177.045349 
z"/>
<path fill="#0C0C0C" opacity="1.000000" stroke="none" 
	d="
M142.784424,104.801918 
	C137.551422,107.569572 137.551422,107.569572 134.414337,114.929909 
	C132.776443,109.287918 129.685959,105.293098 123.122032,103.479935 
	C129.586258,101.676781 132.723022,97.712631 134.419434,91.545189 
	C136.209961,97.108765 138.809555,100.926598 143.814056,102.952629 
	C146.404388,104.001312 143.189163,103.993294 142.784424,104.801918 
z"/>
<path fill="#D3D3D3" opacity="1.000000" stroke="none" 
	d="
M17.386354,83.278107 
	C17.936775,79.535278 20.014139,76.759216 22.573666,73.948715 
	C23.298172,73.924637 23.630251,74.141953 23.989988,74.750015 
	C22.621466,77.318138 20.299154,79.003395 19.851784,81.956558 
	C20.200867,82.180573 20.083773,82.161201 20.096554,82.103256 
	C19.723513,82.279587 19.403919,82.582275 19.063332,83.284164 
	C19.323574,84.108521 19.200102,84.649940 18.674274,84.755661 
	C17.754284,84.940636 17.841087,84.009575 17.386354,83.278107 
z"/>
<path fill="#CACACA" opacity="1.000000" stroke="none" 
	d="
M13.896313,83.567978 
	C10.260062,83.761711 12.186772,80.366875 11.071160,78.349747 
	C11.485925,77.946739 11.842699,77.931122 12.468390,77.924072 
	C13.096675,79.685966 13.456045,81.439301 13.896313,83.567978 
z"/>
<path fill="#040404" opacity="1.000000" stroke="none" 
	d="
M19.414852,83.563141 
	C19.070498,83.069893 19.175060,82.535309 19.694479,82.023010 
	C20.565525,82.626953 20.489311,83.120056 19.414852,83.563141 
z"/>
<path fill="#FEFEFE" opacity="1.000000" stroke="none" 
	d="
M24.409389,74.879173 
	C23.773142,74.809280 23.466284,74.576614 23.026302,74.083420 
	C23.439880,73.351082 23.986580,72.879280 24.770359,72.705093 
	C26.041103,73.750031 25.050543,74.180008 24.409389,74.879173 
z"/>
<path fill="#F6F6F6" opacity="1.000000" stroke="none" 
	d="
M338.011536,185.278091 
	C342.090637,180.931839 345.518311,180.203598 349.093872,182.727814 
	C352.645264,185.234970 353.082336,188.884155 351.685852,192.511230 
	C350.264099,196.204071 347.003937,197.554840 343.134186,196.909256 
	C338.201508,196.086380 336.163391,191.611618 338.011536,185.278091 
z"/>
<path fill="#F5F5F5" opacity="1.000000" stroke="none" 
	d="
M375.626770,187.426590 
	C373.097137,188.871277 370.499054,190.830078 368.989685,187.197769 
	C368.394012,185.764297 368.018707,183.271317 369.478119,182.058212 
	C370.647705,181.086014 372.713226,181.449265 374.238312,182.066269 
	C376.600220,183.021851 376.534180,185.006332 375.626770,187.426590 
z"/>
</svg>